<svg xmlns="http://www.w3.org/2000/svg" xmlns:xlink="http://www.w3.org/1999/xlink" width="500" zoomAndPan="magnify" viewBox="0 0 375 374.999991" height="500" preserveAspectRatio="xMidYMid meet" version="1.0"><defs><g/><clipPath id="d816582bca"><path d="M 148.515625 66.171875 L 164.148438 66.171875 L 164.148438 267.117188 L 148.515625 267.117188 Z M 148.515625 66.171875 " clip-rule="nonzero"/></clipPath><clipPath id="28fbb8049f"><path d="M 160.515625 255.5 L 252.890625 255.5 L 252.890625 267.117188 L 160.515625 267.117188 Z M 160.515625 255.5 " clip-rule="nonzero"/></clipPath><clipPath id="4e3535eccf"><path d="M 160.507812 140.789062 L 310.507812 140.789062 L 310.507812 190.402344 L 160.507812 190.402344 Z M 160.507812 140.789062 " clip-rule="nonzero"/></clipPath></defs><g fill="#f8f8f8" fill-opacity="1"><g transform="translate(70.30133, 259.790584)"><g><path d="M 8.03125 0 L 80.3125 -178.203125 L 87.59375 -178.203125 L 156.875 0 L 148.84375 0 L 128.265625 -53.71875 L 37.65625 -53.71875 L 16.0625 0 Z M 40.40625 -60.484375 L 125.5 -60.484375 L 84.078125 -168.671875 Z M 40.40625 -60.484375 "/></g></g></g><g clip-path="url(#d816582bca)"><path fill="#383838" d="M 148.515625 267.117188 L 148.515625 66.171875 L 164.148438 66.171875 L 164.148438 267.117188 Z M 148.515625 267.117188 " fill-opacity="1" fill-rule="nonzero"/></g><g clip-path="url(#28fbb8049f)"><path fill="#383838" d="M 160.515625 267.117188 L 160.515625 255.5 L 252.890625 255.5 L 252.890625 267.117188 Z M 160.515625 267.117188 " fill-opacity="1" fill-rule="nonzero"/></g><g fill="#f8f8f8" fill-opacity="1"><g transform="translate(128.515909, 261.150872)"><g><path d="M 22.59375 0 L 22.59375 -178.203125 L 61 -178.203125 C 128.9375 -178.203125 162.90625 -148.753906 162.90625 -89.859375 C 162.90625 -61.078125 154.660156 -38.90625 138.171875 -23.34375 C 121.691406 -7.78125 97.554688 0 65.765625 0 Z M 30.375 -6.78125 L 65.015625 -6.78125 C 124.910156 -6.78125 154.859375 -34.472656 154.859375 -89.859375 C 154.859375 -117.296875 147.285156 -137.75 132.140625 -151.21875 C 117.003906 -164.695312 93.707031 -171.4375 62.25 -171.4375 L 30.375 -171.4375 Z M 30.375 -6.78125 "/></g></g></g><g clip-path="url(#4e3535eccf)"><path fill="#383838" d="M 160.507812 190.402344 L 160.507812 140.789062 L 310.507812 140.789062 L 310.507812 190.402344 Z M 160.507812 190.402344 " fill-opacity="1" fill-rule="nonzero"/></g><g fill="#f8f8f8" fill-opacity="1"><g transform="translate(164.750164, 160.650882)"><g><path d="M 0.578125 0 L 5.765625 -12.78125 L 6.28125 -12.78125 L 11.25 0 L 10.671875 0 L 9.203125 -3.859375 L 2.703125 -3.859375 L 1.15625 0 Z M 2.890625 -4.34375 L 9 -4.34375 L 6.03125 -12.09375 Z M 2.890625 -4.34375 "/></g></g></g><g fill="#f8f8f8" fill-opacity="1"><g transform="translate(181.02271, 160.650882)"><g><path d="M 10.421875 -12.78125 L 10.9375 -12.78125 L 10.9375 0 L 10.53125 0 L 2.140625 -11.734375 L 2.140625 0 L 1.625 0 L 1.625 -12.78125 L 2.046875 -12.78125 L 10.421875 -1.046875 Z M 10.421875 -12.78125 "/></g></g></g><g fill="#f8f8f8" fill-opacity="1"><g transform="translate(197.961257, 160.650882)"><g><path d="M 9.15625 -12.78125 L 9.125 -12.3125 L 4.96875 -12.3125 L 4.96875 0 L 4.40625 0 L 4.40625 -12.3125 L 0.15625 -12.3125 L 0.15625 -12.78125 Z M 9.15625 -12.78125 "/></g></g></g><g fill="#f8f8f8" fill-opacity="1"><g transform="translate(211.713812, 160.650882)"><g><path d="M 0.578125 0 L 5.765625 -12.78125 L 6.28125 -12.78125 L 11.25 0 L 10.671875 0 L 9.203125 -3.859375 L 2.703125 -3.859375 L 1.15625 0 Z M 2.890625 -4.34375 L 9 -4.34375 L 6.03125 -12.09375 Z M 2.890625 -4.34375 "/></g></g></g><g fill="#f8f8f8" fill-opacity="1"><g transform="translate(227.98636, 160.650882)"><g><path d="M 7.5 -5.796875 L 11.40625 -5.796875 L 11.40625 0 L 11.015625 0 L 10.890625 -2.140625 C 10.492188 -1.390625 9.957031 -0.820312 9.28125 -0.4375 C 8.613281 -0.0625 7.773438 0.125 6.765625 0.125 C 5.640625 0.125 4.664062 -0.125 3.84375 -0.625 C 3.019531 -1.125 2.382812 -1.835938 1.9375 -2.765625 C 1.5 -3.703125 1.28125 -4.835938 1.28125 -6.171875 C 1.28125 -7.515625 1.519531 -8.691406 2 -9.703125 C 2.488281 -10.722656 3.171875 -11.519531 4.046875 -12.09375 C 4.929688 -12.664062 5.960938 -12.953125 7.140625 -12.953125 C 8.066406 -12.953125 8.890625 -12.753906 9.609375 -12.359375 C 10.328125 -11.960938 10.882812 -11.382812 11.28125 -10.625 L 10.859375 -10.265625 C 10.472656 -10.972656 9.972656 -11.503906 9.359375 -11.859375 C 8.753906 -12.222656 7.976562 -12.40625 7.03125 -12.40625 C 6.019531 -12.40625 5.125 -12.140625 4.34375 -11.609375 C 3.5625 -11.078125 2.953125 -10.335938 2.515625 -9.390625 C 2.078125 -8.453125 1.859375 -7.367188 1.859375 -6.140625 C 1.859375 -4.285156 2.28125 -2.867188 3.125 -1.890625 C 3.976562 -0.921875 5.203125 -0.4375 6.796875 -0.4375 C 8.171875 -0.4375 9.195312 -0.789062 9.875 -1.5 C 10.550781 -2.21875 10.890625 -3.175781 10.890625 -4.375 L 10.890625 -5.3125 L 7.5 -5.3125 Z M 7.5 -5.796875 "/></g></g></g><g fill="#f8f8f8" fill-opacity="1"><g transform="translate(245.068909, 160.650882)"><g><path d="M 6.765625 0.125 C 5.648438 0.125 4.679688 -0.117188 3.859375 -0.609375 C 3.035156 -1.097656 2.398438 -1.8125 1.953125 -2.75 C 1.503906 -3.6875 1.28125 -4.820312 1.28125 -6.15625 C 1.28125 -7.488281 1.535156 -8.664062 2.046875 -9.6875 C 2.554688 -10.71875 3.25 -11.519531 4.125 -12.09375 C 5.007812 -12.664062 6.007812 -12.953125 7.125 -12.953125 C 8.195312 -12.953125 9.128906 -12.6875 9.921875 -12.15625 C 10.722656 -11.632812 11.34375 -10.898438 11.78125 -9.953125 C 12.226562 -9.015625 12.453125 -7.910156 12.453125 -6.640625 C 12.453125 -5.265625 12.207031 -4.066406 11.71875 -3.046875 C 11.226562 -2.035156 10.554688 -1.253906 9.703125 -0.703125 C 8.847656 -0.148438 7.867188 0.125 6.765625 0.125 Z M 6.765625 -0.4375 C 7.773438 -0.4375 8.660156 -0.679688 9.421875 -1.171875 C 10.191406 -1.660156 10.789062 -2.375 11.21875 -3.3125 C 11.65625 -4.25 11.875 -5.382812 11.875 -6.71875 C 11.875 -7.894531 11.675781 -8.90625 11.28125 -9.75 C 10.894531 -10.59375 10.347656 -11.242188 9.640625 -11.703125 C 8.941406 -12.171875 8.109375 -12.40625 7.140625 -12.40625 C 6.109375 -12.40625 5.191406 -12.144531 4.390625 -11.625 C 3.597656 -11.113281 2.976562 -10.382812 2.53125 -9.4375 C 2.082031 -8.5 1.859375 -7.394531 1.859375 -6.125 C 1.859375 -4.28125 2.296875 -2.867188 3.171875 -1.890625 C 4.046875 -0.921875 5.242188 -0.4375 6.765625 -0.4375 Z M 6.765625 -0.4375 "/></g></g></g><g fill="#f8f8f8" fill-opacity="1"><g transform="translate(263.177449, 160.650882)"><g><path d="M 10.421875 -12.78125 L 10.9375 -12.78125 L 10.9375 0 L 10.53125 0 L 2.140625 -11.734375 L 2.140625 0 L 1.625 0 L 1.625 -12.78125 L 2.046875 -12.78125 L 10.421875 -1.046875 Z M 10.421875 -12.78125 "/></g></g></g><g fill="#f8f8f8" fill-opacity="1"><g transform="translate(280.115997, 160.650882)"><g><path d="M 0.578125 0 L 5.765625 -12.78125 L 6.28125 -12.78125 L 11.25 0 L 10.671875 0 L 9.203125 -3.859375 L 2.703125 -3.859375 L 1.15625 0 Z M 2.890625 -4.34375 L 9 -4.34375 L 6.03125 -12.09375 Z M 2.890625 -4.34375 "/></g></g></g><g fill="#f8f8f8" fill-opacity="1"><g transform="translate(296.388545, 160.650882)"><g><path d="M 5.1875 0.125 C 3.875 0.125 2.835938 -0.1875 2.078125 -0.8125 C 1.328125 -1.4375 0.875 -2.421875 0.71875 -3.765625 L 1.265625 -3.8125 C 1.472656 -2.582031 1.878906 -1.707031 2.484375 -1.1875 C 3.097656 -0.664062 4.007812 -0.40625 5.21875 -0.40625 C 6.226562 -0.40625 7.023438 -0.65625 7.609375 -1.15625 C 8.203125 -1.65625 8.5 -2.328125 8.5 -3.171875 C 8.5 -3.765625 8.378906 -4.234375 8.140625 -4.578125 C 7.910156 -4.929688 7.539062 -5.207031 7.03125 -5.40625 C 6.53125 -5.613281 5.878906 -5.796875 5.078125 -5.953125 C 4.398438 -6.085938 3.789062 -6.269531 3.25 -6.5 C 2.71875 -6.726562 2.289062 -7.070312 1.96875 -7.53125 C 1.65625 -7.988281 1.5 -8.628906 1.5 -9.453125 C 1.5 -10.117188 1.65625 -10.71875 1.96875 -11.25 C 2.289062 -11.78125 2.726562 -12.195312 3.28125 -12.5 C 3.84375 -12.800781 4.484375 -12.953125 5.203125 -12.953125 C 6.234375 -12.953125 7.078125 -12.671875 7.734375 -12.109375 C 8.390625 -11.554688 8.785156 -10.726562 8.921875 -9.625 L 8.421875 -9.5625 C 8.265625 -10.550781 7.921875 -11.273438 7.390625 -11.734375 C 6.867188 -12.191406 6.140625 -12.421875 5.203125 -12.421875 C 4.253906 -12.421875 3.488281 -12.148438 2.90625 -11.609375 C 2.332031 -11.066406 2.046875 -10.347656 2.046875 -9.453125 C 2.046875 -8.785156 2.171875 -8.257812 2.421875 -7.875 C 2.679688 -7.488281 3.046875 -7.191406 3.515625 -6.984375 C 3.984375 -6.773438 4.546875 -6.609375 5.203125 -6.484375 C 6.140625 -6.296875 6.890625 -6.070312 7.453125 -5.8125 C 8.015625 -5.5625 8.421875 -5.222656 8.671875 -4.796875 C 8.921875 -4.378906 9.046875 -3.835938 9.046875 -3.171875 C 9.046875 -2.492188 8.882812 -1.910156 8.5625 -1.421875 C 8.238281 -0.929688 7.785156 -0.550781 7.203125 -0.28125 C 6.628906 -0.0078125 5.957031 0.125 5.1875 0.125 Z M 5.1875 0.125 "/></g></g></g><g fill="#f8f8f8" fill-opacity="1"><g transform="translate(163.203289, 185.400881)"><g><path d="M 1.625 0 L 1.625 -12.78125 L 4.375 -12.78125 C 9.25 -12.78125 11.6875 -10.664062 11.6875 -6.4375 C 11.6875 -4.375 11.09375 -2.785156 9.90625 -1.671875 C 8.726562 -0.554688 7 0 4.71875 0 Z M 2.171875 -0.484375 L 4.65625 -0.484375 C 8.957031 -0.484375 11.109375 -2.46875 11.109375 -6.4375 C 11.109375 -8.40625 10.5625 -9.875 9.46875 -10.84375 C 8.382812 -11.8125 6.71875 -12.296875 4.46875 -12.296875 L 2.171875 -12.296875 Z M 2.171875 -0.484375 "/></g></g></g><g fill="#f8f8f8" fill-opacity="1"><g transform="translate(180.537835, 185.400881)"><g><path d="M 8.296875 -12.3125 L 2.15625 -12.3125 L 2.15625 -6.75 L 8.25 -6.75 L 8.25 -6.28125 L 2.15625 -6.28125 L 2.15625 -0.46875 L 8.609375 -0.46875 L 8.515625 0 L 1.625 0 L 1.625 -12.78125 L 8.296875 -12.78125 Z M 8.296875 -12.3125 "/></g></g></g><g fill="#f8f8f8" fill-opacity="1"><g transform="translate(194.290392, 185.400881)"><g><path d="M 9.40625 -12.78125 L 9.96875 -12.78125 L 5.015625 0 L 4.40625 0 L 0.359375 -12.78125 L 0.9375 -12.78125 L 4.734375 -0.578125 Z M 9.40625 -12.78125 "/></g></g></g><g fill="#f8f8f8" fill-opacity="1"><g transform="translate(208.528944, 185.400881)"><g><path d="M 8.296875 -12.3125 L 2.15625 -12.3125 L 2.15625 -6.75 L 8.25 -6.75 L 8.25 -6.28125 L 2.15625 -6.28125 L 2.15625 -0.46875 L 8.609375 -0.46875 L 8.515625 0 L 1.625 0 L 1.625 -12.78125 L 8.296875 -12.78125 Z M 8.296875 -12.3125 "/></g></g></g><g fill="#f8f8f8" fill-opacity="1"><g transform="translate(222.281503, 185.400881)"><g><path d="M 1.625 0 L 1.625 -12.78125 L 2.171875 -12.78125 L 2.171875 -0.484375 L 8.390625 -0.484375 L 8.296875 0 Z M 1.625 0 "/></g></g></g><g fill="#f8f8f8" fill-opacity="1"><g transform="translate(234.900067, 185.400881)"><g><path d="M 6.765625 0.125 C 5.648438 0.125 4.679688 -0.117188 3.859375 -0.609375 C 3.035156 -1.097656 2.398438 -1.8125 1.953125 -2.75 C 1.503906 -3.6875 1.28125 -4.820312 1.28125 -6.15625 C 1.28125 -7.488281 1.535156 -8.664062 2.046875 -9.6875 C 2.554688 -10.71875 3.25 -11.519531 4.125 -12.09375 C 5.007812 -12.664062 6.007812 -12.953125 7.125 -12.953125 C 8.195312 -12.953125 9.128906 -12.6875 9.921875 -12.15625 C 10.722656 -11.632812 11.34375 -10.898438 11.78125 -9.953125 C 12.226562 -9.015625 12.453125 -7.910156 12.453125 -6.640625 C 12.453125 -5.265625 12.207031 -4.066406 11.71875 -3.046875 C 11.226562 -2.035156 10.554688 -1.253906 9.703125 -0.703125 C 8.847656 -0.148438 7.867188 0.125 6.765625 0.125 Z M 6.765625 -0.4375 C 7.773438 -0.4375 8.660156 -0.679688 9.421875 -1.171875 C 10.191406 -1.660156 10.789062 -2.375 11.21875 -3.3125 C 11.65625 -4.25 11.875 -5.382812 11.875 -6.71875 C 11.875 -7.894531 11.675781 -8.90625 11.28125 -9.75 C 10.894531 -10.59375 10.347656 -11.242188 9.640625 -11.703125 C 8.941406 -12.171875 8.109375 -12.40625 7.140625 -12.40625 C 6.109375 -12.40625 5.191406 -12.144531 4.390625 -11.625 C 3.597656 -11.113281 2.976562 -10.382812 2.53125 -9.4375 C 2.082031 -8.5 1.859375 -7.394531 1.859375 -6.125 C 1.859375 -4.28125 2.296875 -2.867188 3.171875 -1.890625 C 4.046875 -0.921875 5.242188 -0.4375 6.765625 -0.4375 Z M 6.765625 -0.4375 "/></g></g></g><g fill="#f8f8f8" fill-opacity="1"><g transform="translate(253.008613, 185.400881)"><g><path d="M 2.171875 0 L 1.625 0 L 1.625 -12.78125 L 5.40625 -12.78125 C 6.78125 -12.78125 7.851562 -12.46875 8.625 -11.84375 C 9.394531 -11.226562 9.78125 -10.367188 9.78125 -9.265625 C 9.78125 -6.785156 8.171875 -5.546875 4.953125 -5.546875 L 2.171875 -5.546875 Z M 5.234375 -12.296875 L 2.171875 -12.296875 L 2.171875 -6.046875 L 4.96875 -6.046875 C 6.445312 -6.046875 7.523438 -6.296875 8.203125 -6.796875 C 8.878906 -7.304688 9.21875 -8.125 9.21875 -9.25 C 9.21875 -10.289062 8.882812 -11.054688 8.21875 -11.546875 C 7.5625 -12.046875 6.566406 -12.296875 5.234375 -12.296875 Z M 5.234375 -12.296875 "/></g></g></g><g fill="#f8f8f8" fill-opacity="1"><g transform="translate(267.75116, 185.400881)"><g><path d="M 8.296875 -12.3125 L 2.15625 -12.3125 L 2.15625 -6.75 L 8.25 -6.75 L 8.25 -6.28125 L 2.15625 -6.28125 L 2.15625 -0.46875 L 8.609375 -0.46875 L 8.515625 0 L 1.625 0 L 1.625 -12.78125 L 8.296875 -12.78125 Z M 8.296875 -12.3125 "/></g></g></g><g fill="#f8f8f8" fill-opacity="1"><g transform="translate(281.503719, 185.400881)"><g><path d="M 10.421875 -12.78125 L 10.9375 -12.78125 L 10.9375 0 L 10.53125 0 L 2.140625 -11.734375 L 2.140625 0 L 1.625 0 L 1.625 -12.78125 L 2.046875 -12.78125 L 10.421875 -1.046875 Z M 10.421875 -12.78125 "/></g></g></g><g fill="#f8f8f8" fill-opacity="1"><g transform="translate(298.442267, 185.400881)"><g><path d="M 9.15625 -12.78125 L 9.125 -12.3125 L 4.96875 -12.3125 L 4.96875 0 L 4.40625 0 L 4.40625 -12.3125 L 0.15625 -12.3125 L 0.15625 -12.78125 Z M 9.15625 -12.78125 "/></g></g></g></svg>