<svg xmlns="http://www.w3.org/2000/svg" xmlns:xlink="http://www.w3.org/1999/xlink" width="500" zoomAndPan="magnify" viewBox="0 0 375 374.999991" height="500" preserveAspectRatio="xMidYMid meet" version="1.0"><defs><g/><clipPath id="0f3ea7b8cf"><path d="M 148.515625 66.171875 L 164.148438 66.171875 L 164.148438 267.117188 L 148.515625 267.117188 Z M 148.515625 66.171875 " clip-rule="nonzero"/></clipPath><clipPath id="f72f4fff59"><path d="M 160.515625 255.5 L 252.890625 255.5 L 252.890625 267.117188 L 160.515625 267.117188 Z M 160.515625 255.5 " clip-rule="nonzero"/></clipPath></defs><g fill="#f8f8f8" fill-opacity="1"><g transform="translate(70.30133, 259.790608)"><g><path d="M 8.03125 0 L 80.3125 -178.203125 L 87.59375 -178.203125 L 156.875 0 L 148.84375 0 L 128.265625 -53.71875 L 37.65625 -53.71875 L 16.0625 0 Z M 40.40625 -60.484375 L 125.5 -60.484375 L 84.078125 -168.671875 Z M 40.40625 -60.484375 "/></g></g></g><g clip-path="url(#0f3ea7b8cf)"><path fill="#383838" d="M 148.515625 267.117188 L 148.515625 66.171875 L 164.148438 66.171875 L 164.148438 267.117188 Z M 148.515625 267.117188 " fill-opacity="1" fill-rule="nonzero"/></g><g clip-path="url(#f72f4fff59)"><path fill="#383838" d="M 160.515625 267.117188 L 160.515625 255.5 L 252.890625 255.5 L 252.890625 267.117188 Z M 160.515625 267.117188 " fill-opacity="1" fill-rule="nonzero"/></g><g fill="#f8f8f8" fill-opacity="1"><g transform="translate(128.515909, 261.150891)"><g><path d="M 22.59375 0 L 22.59375 -178.203125 L 61 -178.203125 C 128.9375 -178.203125 162.90625 -148.753906 162.90625 -89.859375 C 162.90625 -61.078125 154.660156 -38.90625 138.171875 -23.34375 C 121.691406 -7.78125 97.554688 0 65.765625 0 Z M 30.375 -6.78125 L 65.015625 -6.78125 C 124.910156 -6.78125 154.859375 -34.472656 154.859375 -89.859375 C 154.859375 -117.296875 147.285156 -137.75 132.140625 -151.21875 C 117.003906 -164.695312 93.707031 -171.4375 62.25 -171.4375 L 30.375 -171.4375 Z M 30.375 -6.78125 "/></g></g></g></svg>