<?xml version="1.0" encoding="utf-8"?>
<!-- Generator: Adobe Illustrator 18.1.0, SVG Export Plug-In . SVG Version: 6.00 Build 0)  -->
<svg version="1.1" id="Layer_1" xmlns="http://www.w3.org/2000/svg" xmlns:xlink="http://www.w3.org/1999/xlink" x="0px" y="0px"
	 viewBox="-362.4 459.1 500 500" enable-background="new -362.4 459.1 500 500" xml:space="preserve">
<radialGradient id="SVGID_1_" cx="-1002.9115" cy="1088.6691" r="0.6375" gradientTransform="matrix(545.6736 0 0 -528.3113 547071.625 575749.0625)" gradientUnits="userSpaceOnUse">
	<stop  offset="0" style="stop-color:#4B2B36;stop-opacity:0.98"/>
	<stop  offset="1" style="stop-color:#250012"/>
</radialGradient>
<path fill="url(#SVGID_1_)" d="M-341.6,493h457.7v445.3h-457.7V493z"/>
<path fill="#FF408C" d="M-341.6,493h457.7v445.3h-457.7V493z M-362.4,959.1H137V472.2h-499.4V959.1z M-46.5,674.5
	c-3.1-1.5-7.3-2.1-12.3-2.1c-26.8,0-45.6,20.6-45.6,54.9c0,39.1,19.1,54.9,43.1,54.9c5.2,0,10.6-0.6,14.8-2.5V674.5L-46.5,674.5z
	 M-57.5,640.6c4.4,0,6.9,0,11,0.4v-55.3c0-1.5,1-2.1,2.1-2.1h33.7c1.7,0,2.1,0.6,2.1,1.7v194.5c0,5.8,0,13.1,1,21
	c0,1.5-0.4,1.7-1.9,2.5c-17.9,8.5-36.8,12.3-54.5,12.3c-46,0-78.9-28.5-78.9-86.6C-143.1,679.3-110.2,640.6-57.5,640.6z
	 M-179.7,809.7c0,2.1-0.4,2.7-2.7,2.7h-32c-2.1,0-2.7-1-2.7-2.7V586.3c0-2.1,1-2.7,2.7-2.7h32.3c1.7,0,2.5,0.6,2.5,2.5V809.7
	L-179.7,809.7z"/>
</svg>
